# xmcd
#
# Track frame offsets:
#	150
#	17913
#	37151
#	51668
#	68737
#	79254
#	95639
#	113023
#	127762
#	146642
#	170503
#	189356
#	205002
#
# Disc length: 2913 seconds
#
# Revision: 0
# Processed by: cddbd v1.5.1PL0 Copyright (c) Steve Scherf et al.
# Submitted via: dBpowerAMP V4.0
#
DISCID=b70b5f0d
DTITLE=Bas de Haan - Passion and Pain
DYEAR=2005
DGENRE=Blues
TTITLE0=Passion and Pain
TTITLE1=Naomi
TTITLE2=Shoot me down
TTITLE3=I'm on sale
TTITLE4=Rise and Shine
TTITLE5=Something is wrong
TTITLE6=The blues upside down
TTITLE7=Ordinary man
TTITLE8=Black angel in a white dress
TTITLE9=Sleepless nights
TTITLE10=Misunderstood
TTITLE11=Chicken prelude
TTITLE12=If you ever
EXTD=
EXTT0=
EXTT1=
EXTT2=
EXTT3=
EXTT4=
EXTT5=
EXTT6=
EXTT7=
EXTT8=
EXTT9=
EXTT10=
EXTT11=
EXTT12=
PLAYORDER=
